# xmcd
#
# Track frame offsets:
#	150
#	10916
#	26506
#	38164
#	52631
#	68779
#	81930
#	99309
#	113606
#	130507
#	142245
#	155168
#	170233
#	182232
#	196196
#	207195
#	221482
#	237354
#	248015
#	262120
#	280692
#	293798
#
# Disc length: 4070 seconds
#
# Revision: 2
# Processed by: cddbd v1.4PL0 Copyright (c) Steve Scherf et al.
# Submitted via: dBpowerAMP V4.0
#
DISCID=3b0fe416
DTITLE=coletanea sertaneja - coletanea country vol2
DYEAR=1900
DGENRE=sertanejas
TTITLE0=Jota Junior - Vai Jotinha
TTITLE1=Leonardo - A marvada
TTITLE2=Mauricio e Marcelo - Um tiquim
TTITLE3=Gino e Geno - O que é que ela tem
TTITLE4=Rick e Renner - Muleca
TTITLE5=Teodoro e Sampaio - O pau quebrou
TTITLE6=Rick e Renner - Nóis trupica mais não cai
TTITLE7=Teodoro e Sampaio - Paião bandida
TTITLE8=Zeze di Camargo e Luciano - Mexe mexe que é bom
TTITLE9=Gian e Giovanni - O trem é bão
TTITLE10=André e Adriane - Vira e mexe
TTITLE11=Gino e Geno - O gato comeu
TTITLE12=Gian e Giovanni - Rabo de saia
TTITLE13=Romeu e Carlinho - Jogo de truco
TTITLE14=Teodoro e Sampaio - Garanhão da madrugada
TTITLE15=Gian e Giovanni - Abre a janela
TTITLE16=Gino e Geno - Tição acesso
TTITLE17=Teodoro e Sampaio - Meu negócio é mulher
TTITLE18=Gian e Giovanni - Peão não chora
TTITLE19=Dallas Company - Clima de rodeio
TTITLE20=Gleydson Rodrigues - Dadada (risadinha)
TTITLE21=Marcos e Fernando - Socorro
EXTD=
EXTT0=
EXTT1=
EXTT2=
EXTT3=
EXTT4=
EXTT5=
EXTT6=
EXTT7=
EXTT8=
EXTT9=
EXTT10=
EXTT11=
EXTT12=
EXTT13=
EXTT14=
EXTT15=
EXTT16=
EXTT17=
EXTT18=
EXTT19=
EXTT20=
EXTT21=
PLAYORDER=
